<svg version="1.1" id="Layer_1" xmlns="http://www.w3.org/2000/svg" xmlns:xlink="http://www.w3.org/1999/xlink" x="0px" y="0px"
	 width="100%" viewBox="0 0 2000 1500" enable-background="new 0 0 2000 1500" xml:space="preserve">
<path fill="#000000" opacity="1.000000" stroke="none" 
	d="
M1052.000000,1501.000000 
	C701.333435,1501.000000 351.166870,1501.000000 1.000235,1501.000000 
	C1.000157,1001.000244 1.000157,501.000519 1.000078,1.000570 
	C667.666199,1.000380 1334.332397,1.000380 2000.999023,1.000190 
	C2000.999268,500.999390 2000.999268,1000.998779 2000.999634,1500.999023 
	C1684.833374,1501.000000 1368.666626,1501.000000 1052.000000,1501.000000 
M1051.500000,1141.182373 
	C1063.299561,1141.182373 1075.099121,1141.182373 1087.168091,1141.182373 
	C1132.809937,902.906555 1178.388916,664.958557 1223.220825,430.911255 
	C1223.220825,452.756561 1222.757690,478.384949 1223.305908,503.991669 
	C1225.092773,587.460571 1227.044678,670.927124 1229.345581,754.383240 
	C1230.571777,798.856201 1232.565308,843.309082 1234.359009,887.765137 
	C1236.817749,948.703674 1239.441040,1009.635620 1241.946533,1070.572388 
	C1244.102783,1123.018311 1246.186768,1175.467285 1248.319336,1227.914307 
	C1248.628540,1235.520020 1249.029419,1243.122070 1249.383789,1250.638672 
	C1307.836304,1250.638672 1365.885498,1250.638672 1424.518555,1250.638672 
	C1403.292603,917.264526 1382.091919,584.287659 1360.882202,251.168640 
	C1282.018921,251.168640 1203.571411,251.168640 1124.729492,251.168640 
	C1084.365967,485.170197 1044.007568,719.141541 1003.649170,953.112915 
	C1003.323730,953.131775 1002.998230,953.150696 1002.672791,953.169617 
	C959.430847,719.195312 916.188904,485.220978 872.944580,251.233643 
	C795.572205,251.233643 718.475647,251.233643 641.109070,251.233643 
	C619.889343,584.533936 598.683350,917.617920 577.481689,1250.633911 
	C635.616150,1250.633911 692.668640,1250.633911 749.766846,1250.633911 
	C751.847656,1196.496216 753.930298,1142.723267 755.976685,1088.948975 
	C757.782654,1041.491211 759.532471,994.031311 761.335266,946.573486 
	C763.833740,880.798706 767.328369,815.044128 768.632629,749.245911 
	C770.356567,662.279053 770.407288,575.278625 771.099792,488.292023 
	C771.265259,467.507935 771.124329,446.721375 771.124329,427.073212 
	C818.351074,664.148743 865.828613,902.483459 913.378723,1141.182373 
	C959.232300,1141.182373 1004.866150,1141.182373 1051.500000,1141.182373 
z"/>
<path fill="#FFFFFF" opacity="1.000000" stroke="none" 
	d="
M1051.000000,1141.182373 
	C1004.866150,1141.182373 959.232300,1141.182373 913.378723,1141.182373 
	C865.828613,902.483459 818.351074,664.148743 771.124329,427.073212 
	C771.124329,446.721375 771.265259,467.507935 771.099792,488.292023 
	C770.407288,575.278625 770.356567,662.279053 768.632629,749.245911 
	C767.328369,815.044128 763.833740,880.798706 761.335266,946.573486 
	C759.532471,994.031311 757.782654,1041.491211 755.976685,1088.948975 
	C753.930298,1142.723267 751.847656,1196.496216 749.766846,1250.633911 
	C692.668640,1250.633911 635.616150,1250.633911 577.481689,1250.633911 
	C598.683350,917.617920 619.889343,584.533936 641.109070,251.233643 
	C718.475647,251.233643 795.572205,251.233643 872.944580,251.233643 
	C916.188904,485.220978 959.430847,719.195312 1002.672791,953.169617 
	C1002.998230,953.150696 1003.323730,953.131775 1003.649170,953.112915 
	C1044.007568,719.141541 1084.365967,485.170197 1124.729492,251.168640 
	C1203.571411,251.168640 1282.018921,251.168640 1360.882202,251.168640 
	C1382.091919,584.287659 1403.292603,917.264526 1424.518555,1250.638672 
	C1365.885498,1250.638672 1307.836304,1250.638672 1249.383789,1250.638672 
	C1249.029419,1243.122070 1248.628540,1235.520020 1248.319336,1227.914307 
	C1246.186768,1175.467285 1244.102783,1123.018311 1241.946533,1070.572388 
	C1239.441040,1009.635620 1236.817749,948.703674 1234.359009,887.765137 
	C1232.565308,843.309082 1230.571777,798.856201 1229.345581,754.383240 
	C1227.044678,670.927124 1225.092773,587.460571 1223.305908,503.991669 
	C1222.757690,478.384949 1223.220825,452.756561 1223.220825,430.911255 
	C1178.388916,664.958557 1132.809937,902.906555 1087.168091,1141.182373 
	C1075.099121,1141.182373 1063.299561,1141.182373 1051.000000,1141.182373 
z"/>
</svg>